<svg width="96" height="96" xmlns="http://www.w3.org/2000/svg" xmlns:xlink="http://www.w3.org/1999/xlink" overflow="hidden"><defs><clipPath id="clip0"><rect x="113" y="177" width="96" height="96"/></clipPath></defs><g clip-path="url(#clip0)" transform="translate(-113 -177)"><path d="M203.334 242.43 197.927 240.512 197.927 231.489 202.274 229.65C202.783 229.435 203.021 228.849 202.807 228.34 202.673 228.024 202.387 227.798 202.048 227.742L194.911 226.563 194.911 217.72 203.375 214.3C203.887 214.093 204.135 213.51 203.928 212.998 203.82 212.732 203.604 212.526 203.334 212.43L197.927 210.512 197.927 201.489 202.274 199.65C202.783 199.435 203.021 198.848 202.805 198.339 202.698 198.085 202.49 197.887 202.231 197.791L168.671 185.4C168.455 185.32 168.218 185.317 168 185.392L122.7 201.19C122.605 201.222 122.516 201.269 122.436 201.328 122.307 201.428 119.27 203.738 119.27 210.835 119.258 212.452 119.443 214.064 119.822 215.635 118.643 216.635 116.27 219.335 116.27 224.835 116.25 228.793 117.517 232.65 119.881 235.825 119.455 237.46 119.25 239.145 119.27 240.835 119.27 247.873 122.364 250.735 122.496 250.852 122.584 250.932 122.686 250.995 122.796 251.039L154.796 263.631C154.913 263.677 155.037 263.7 155.162 263.7 155.291 263.7 155.418 263.675 155.537 263.627L203.375 244.3C203.887 244.093 204.135 243.51 203.928 242.998 203.82 242.732 203.604 242.526 203.334 242.43ZM192.911 226.73 155.121 241.788 123.465 229.326 123.465 221.315 154.8 233.631C155.038 233.726 155.303 233.726 155.541 233.631L192.909 218.531ZM155.163 261.623 123.733 249.257C123.245 248.713 121.272 246.182 121.272 240.835 121.243 239.165 121.47 237.501 121.945 235.9 122.053 235.56 121.972 235.188 121.732 234.924 119.46 232.053 118.239 228.492 118.272 224.831 118.272 218.886 121.345 216.961 121.472 216.886 121.872 216.654 122.061 216.178 121.929 215.735 121.476 214.142 121.256 212.491 121.275 210.835 121.275 205.518 123.126 203.421 123.544 203.015L168.314 187.4 199.144 198.784C199.158 198.784 199.158 198.798 199.144 198.803L155.163 216.623 125.831 205.077C125.317 204.875 124.736 205.128 124.534 205.642 124.489 205.758 124.465 205.883 124.465 206.008L124.465 216.008C124.465 216.419 124.716 216.787 125.098 216.938L154.8 228.631C155.038 228.726 155.303 228.726 155.541 228.631L196.466 212.091 200.156 213.424C200.169 213.429 200.169 213.437 200.156 213.443L155.163 231.623 122.831 218.917C122.317 218.715 121.737 218.968 121.534 219.482 121.488 219.598 121.465 219.723 121.465 219.848L121.465 230.008C121.465 230.419 121.716 230.787 122.098 230.938L154.757 243.794C154.993 243.888 155.257 243.888 155.493 243.794L194.022 228.444 198.28 229.144C198.299 229.144 198.3 229.156 198.28 229.163L155.163 246.623 125.831 235.077C125.317 234.875 124.736 235.128 124.534 235.642 124.489 235.758 124.465 235.883 124.465 236.008L124.465 246.008C124.465 246.419 124.716 246.787 125.098 246.938L154.8 258.631C155.038 258.726 155.303 258.726 155.541 258.631L196.466 242.091 200.156 243.424C200.169 243.424 200.169 243.437 200.156 243.443ZM195.927 210.152 155.163 226.623 126.463 215.323 126.463 207.473 154.8 218.631C155.038 218.726 155.303 218.726 155.541 218.631L195.927 202.309ZM195.927 240.152 155.163 256.623 126.463 245.323 126.463 237.473 154.8 248.631C155.038 248.726 155.303 248.726 155.541 248.631L195.927 232.309Z"/></g></svg>