<svg width="96" height="96" xmlns="http://www.w3.org/2000/svg" xmlns:xlink="http://www.w3.org/1999/xlink" overflow="hidden"><defs><clipPath id="clip0"><rect x="552" y="64" width="96" height="96"/></clipPath></defs><g clip-path="url(#clip0)" transform="translate(-552 -64)"><path d="M626.005 146 626.005 72 574.005 72 574.005 146 562.005 146 562.005 152 574.005 152 576.004 152 580.005 152 580.005 78 620.005 78 620.005 152 624.005 152 626.005 152 638.005 152 638.005 146 626.005 146Z"/><path d="M583.005 152 617.005 152 617.005 81 583.005 81ZM602 116 607.684 116C608.236 114.438 609.95 113.619 611.512 114.172 613.075 114.724 613.893 116.438 613.341 118 612.789 119.562 611.075 120.381 609.512 119.828 608.658 119.526 607.986 118.854 607.684 118L602 118Z"/></g></svg>