<svg width="96" height="96" xmlns="http://www.w3.org/2000/svg" xmlns:xlink="http://www.w3.org/1999/xlink" overflow="hidden"><defs><clipPath id="clip0"><rect x="115" y="81" width="96" height="96"/></clipPath></defs><g clip-path="url(#clip0)" transform="translate(-115 -81)"><path d="M205.6 117.3 200.4 115.4 200.4 104.5 205.6 102.3 170.4 89.3 127.6 104.3C123.5 106.3 123.4 111.8 123.4 116.3 123.4 117.8 123.6 119.3 123.9 120.7 120.5 122.9 120.4 128 120.4 132.3 120.4 135.8 121.2 139 123.4 141 122.9 142.7 123.2 144.8 123.2 147.3 123.2 151.8 124.4 155.9 128.4 157.3L156.2 168.8 205.4 148.4 200.2 146.5 200.2 135.5 205.4 133.3 197.4 130.3 197.4 120.7 205.6 117.3ZM128.8 111.3 156.6 122.2 196.5 106.1 196.5 114.7 156.6 131.3 128.8 120.3 128.8 111.3ZM196.3 145.8 156.4 162.3 128.5 151.3 128.5 143.5 153.4 153.7 196.4 136.7 196.3 145.8ZM193.5 130.8 153.6 147.3 125.8 136.3 125.8 127.3 154.4 138.7 193.6 122.3 193.6 130.8Z"/></g></svg>