<svg width="96" height="96" xmlns="http://www.w3.org/2000/svg" xmlns:xlink="http://www.w3.org/1999/xlink" overflow="hidden"><defs><clipPath id="clip0"><rect x="223" y="80" width="96" height="96"/></clipPath></defs><g clip-path="url(#clip0)" transform="translate(-223 -80)"><path d="M265 107 281 107 281 104C281 101.8 279.2 100 277 100L235 100C232.8 100 231 101.8 231 104L231 131C231 133.2 232.8 135 235 135L241 135 241 145 251 135 257 135 257 115C257 110.6 260.6 107 265 107Z"/><path d="M307 111 265 111C262.8 111 261 112.8 261 115L261 142C261 144.2 262.8 146 265 146L291 146 301 156 301 146 307 146C309.2 146 311 144.2 311 142L311 115C311 112.8 309.2 111 307 111Z"/></g></svg>