<svg width="96" height="96" xmlns="http://www.w3.org/2000/svg" xmlns:xlink="http://www.w3.org/1999/xlink" overflow="hidden"><defs><clipPath id="clip0"><rect x="551" y="179" width="96" height="96"/></clipPath></defs><g clip-path="url(#clip0)" transform="translate(-551 -179)"><path d="M581.005 267 617.005 267 617.005 194 581.005 194ZM583.005 196 615.005 196 615.005 265 583.005 265Z"/><path d="M623.005 264.999 623.005 187.999 575 187.999 575 264.999 561.005 264.999 561.005 266.999 577 266.999 577 189.999 621.005 189.999 621.005 266.999 637.005 266.999 637.005 264.999 623.005 264.999Z"/><path d="M610.512 228.172C608.953 227.618 607.241 228.433 606.687 229.991 606.686 229.994 606.685 229.997 606.684 230L601 230 601 232 606.684 232C607.236 233.562 608.95 234.381 610.512 233.829 612.074 233.277 612.893 231.564 612.341 230.001 612.039 229.146 611.367 228.474 610.512 228.172ZM609.518 232C608.966 232 608.518 231.552 608.518 231 608.518 230.448 608.966 230 609.518 230 610.07 230 610.518 230.448 610.518 231 610.518 231.552 610.07 232 609.518 232Z"/></g></svg>