<?xml version="1.0" encoding="UTF-8" standalone="no"?>
<svg
   width="96"
   height="96"
   overflow="hidden"
   version="1.1"
   id="svg11"
   sodipodi:docname="Afbeelding5.svg"
   inkscape:export-filename="C:\Users\douwe\Projects\Personal Website\Assets\Resources\PowerPointImages\logo3.png"
   inkscape:export-xdpi="96"
   inkscape:export-ydpi="96"
   inkscape:version="1.1.1 (3bf5ae0d25, 2021-09-20)"
   xmlns:inkscape="http://www.inkscape.org/namespaces/inkscape"
   xmlns:sodipodi="http://sodipodi.sourceforge.net/DTD/sodipodi-0.dtd"
   xmlns="http://www.w3.org/2000/svg"
   xmlns:svg="http://www.w3.org/2000/svg">
  <sodipodi:namedview
     id="namedview13"
     pagecolor="#505050"
     bordercolor="#eeeeee"
     borderopacity="1"
     inkscape:pageshadow="0"
     inkscape:pageopacity="0"
     inkscape:pagecheckerboard="0"
     showgrid="false"
     inkscape:zoom="8.3541667"
     inkscape:cx="21.246883"
     inkscape:cy="48.05985"
     inkscape:window-width="1920"
     inkscape:window-height="991"
     inkscape:window-x="-9"
     inkscape:window-y="-9"
     inkscape:window-maximized="1"
     inkscape:current-layer="svg11" />
  <defs
     id="defs5">
    <clipPath
       id="clip0">
      <rect
         x="230"
         y="160"
         width="96"
         height="96"
         id="rect2" />
    </clipPath>
  </defs>
  <g
     clip-path="url(#clip0)"
     transform="translate(-230 -160)"
     id="g9">
    <path
       d="M314 191.009 288 191.009 288 184.009C287.993 181.803 286.206 180.016 284 180.009L242 180.009C239.794 180.016 238.007 181.803 238 184.009L238 211.017C238.007 213.223 239.794 215.01 242 215.017L248 215.017 248 225.017 258 215.017 268 215.017 268 222.017C268.007 224.223 269.794 226.01 272 226.017L298 226.017 308 236.017 308 226.017 314 226.017C316.206 226.01 317.993 224.223 318 222.017L318 195.01C317.994 192.803 316.207 191.016 314 191.009ZM268 195.009 268 213.018 257.174 213.018 256.588 213.604 250 220.192 250 213.018 242 213.018C240.895 213.018 240 212.123 240 211.018L240 184.01C240 182.905 240.895 182.01 242 182.01L284 182.01C285.105 182.01 286 182.905 286 184.01L286 191.01 272 191.01C269.794 191.017 268.007 192.804 268 195.01ZM316 222.017C316 223.122 315.105 224.017 314 224.017L306 224.017 306 231.191 299.418 224.6 298.832 224.014 272 224.014C270.895 224.014 270 223.119 270 222.014L270 195.01C270 193.905 270.895 193.01 272 193.01L314 193.01C315.105 193.01 316 193.905 316 195.01Z"
       id="path7" />
  </g>
</svg>
