<svg width="96" height="96" xmlns="http://www.w3.org/2000/svg" xmlns:xlink="http://www.w3.org/1999/xlink" overflow="hidden"><defs><clipPath id="clip0"><rect x="659" y="65" width="96" height="96"/></clipPath></defs><g clip-path="url(#clip0)" transform="translate(-659 -65)"><path d="M733.005 146.999 733.005 72.999 681.005 72.999 681.005 146.999 669.005 146.999 669.005 152.999 681.005 152.999 683.004 152.999 687.005 152.999 687.005 78.999 727.005 78.999 727.005 152.999 731.005 152.999 733.005 152.999 745.005 152.999 745.005 146.999 733.005 146.999Z"/><path d="M690.005 153 719.005 149 719.005 86 690.005 82ZM708 117 712.45 117C712.653 115.916 713.552 115.099 714.65 115 715.951 115 717 116.343 717 118 717 119.657 715.949 121 714.652 121 713.554 120.901 712.655 120.084 712.452 119L708 119Z"/></g></svg>