<svg width="96" height="96" xmlns="http://www.w3.org/2000/svg" xmlns:xlink="http://www.w3.org/1999/xlink" overflow="hidden"><defs><clipPath id="clip0"><rect x="343" y="64" width="96" height="96"/></clipPath></defs><g clip-path="url(#clip0)" transform="translate(-343 -64)"><path d="M405.2 118.6C409.4 120.1 413.4 121.8 416.7 124.5 418.1 125.6 418.9 127.2 418.9 129L420.7 144.5C420.8 145.2 420.5 145.9 419.9 146.3L419.9 146.3C418.2 147.4 416.4 148.3 414.5 148.9L414.5 152.1 417.2 152.1C418.9 151.4 420.6 150.6 422.1 149.6L422.1 149.6C423.9 148.4 424.9 146.2 424.6 144L423 128.9C422.9 126 421.6 123.3 419.3 121.5 415.6 118.4 411.2 116.5 406.6 114.9L401.7 112.9C401.3 112.7 401.1 112.4 401.1 112L401.1 109.6C404.9 106.6 407.1 102 407.1 97.1L407.1 93.5C407.7 93.9 408.4 94 409.1 94.1L407.4 89.1C407.2 88.4 407 87.7 406.9 87 406.1 81.3 402.7 77.3 398 74.8 397.6 74.6 397.1 74.6 396.7 74.9L395.8 75.6 394.8 74.2C394.5 73.8 394.1 73.4 393.6 73.3 392.7 73.1 391.8 73 390.9 73 383 73 376.4 79.2 375 87.3L375 88 375 88 375 89.7C375 91.9 374.6 94 373.7 96L372 100C372 100 373.2 99.7 375.2 99.1 375.7 103.2 377.8 106.9 381 109.4L381 111.9C381 112.3 380.8 112.7 380.4 112.8L375.5 114.8C370.9 116.4 366.5 118.3 362.8 121.4 360.5 123.2 359.1 125.9 359 128.8L357.3 144C357 146.2 358 148.4 359.8 149.6 361.3 150.6 363 151.4 364.7 152.1L367.5 152.1 367.5 149C365.6 148.3 363.8 147.5 362.1 146.4 361.5 146 361.2 145.3 361.3 144.6L363 129.2 363 129C363 127.2 363.9 125.6 365.3 124.5 368.6 121.8 372.6 120.1 376.8 118.6L378.4 118.1C381.3 119.9 385.9 121 391 121 396.1 121 400.7 119.9 403.7 118.1L405.2 118.6ZM379 97.9C385.8 95.6 395.6 91.6 400 86 400.9 87.4 401.9 88.7 403 90L403 97C403 103.6 397.6 109 391 109 384.7 109 379.5 104.2 379 97.9ZM383 115.9C384.2 115 385 113.5 385 111.9L385 111.8C388.8 113.4 393.2 113.4 397 111.8L397 111.9C397 113.4 397.7 114.9 398.9 115.9 396.3 116.7 393.6 117.1 390.9 117 388.3 117 385.6 116.6 383 115.9Z"/><path d="M412.6 129.3C412.6 127.9 411.5 126.8 410.1 126.8L410.1 126.8 372 126.8C370.6 126.8 369.5 127.9 369.5 129.3L369.5 129.3 369.5 154.2 361.9 154.2 361.9 155.5C361.9 156.9 363 158 364.4 158L417.7 158C419.1 158 420.2 156.9 420.2 155.5L420.2 154.2 412.6 154.2 412.6 129.3ZM385.8 145.8 384.4 147.2 378.8 141.6 384.4 136 385.8 137.4 381.6 141.6 385.8 145.8ZM389.6 147.9 387.8 147.1 392.5 135.8 394.3 136.6 389.6 147.9ZM397.6 147.3 396.2 145.9 400.4 141.7 396.2 137.5 397.6 136.1 403.2 141.7 397.6 147.3Z"/></g></svg>