<svg width="96" height="96" xmlns="http://www.w3.org/2000/svg" xmlns:xlink="http://www.w3.org/1999/xlink" overflow="hidden"><defs><clipPath id="clip0"><rect x="663" y="176" width="96" height="96"/></clipPath></defs><g clip-path="url(#clip0)" transform="translate(-663 -176)"><path d="M735 262 735 185 687 185 687 262 673 262 673 264 689 264 689 187 733 187 733 264 749 264 749 262Z"/><path d="M693 264.1 724 259.8 724 195.1 693 190.8 693 264.1ZM695 193.1 722 196.8 722 258.1 695 261.8 695 193.1Z"/><path d="M718.7 225C717.6 225.1 716.7 225.9 716.5 227L712 227 712 229 716.5 229C716.7 230.1 717.6 230.9 718.7 231 720 231 721 229.7 721 228 721 226.3 720 225 718.7 225ZM718.7 227C718.8 227 719 227.5 719 228 719 228.4 718.8 229 718.7 229 718.5 229 718.3 228.4 718.4 228 718.3 227.5 718.6 227 718.7 227Z"/></g></svg>