<?xml version="1.0" encoding="UTF-8" standalone="no"?>
<svg
   width="96"
   height="96"
   overflow="hidden"
   version="1.1"
   id="svg19"
   sodipodi:docname="Afbeelding7.svg"
   inkscape:export-filename="C:\Users\douwe\Projects\Personal Website\Assets\Resources\PowerPointImages\logo.png"
   inkscape:export-xdpi="96"
   inkscape:export-ydpi="96"
   inkscape:version="1.1.1 (3bf5ae0d25, 2021-09-20)"
   xmlns:inkscape="http://www.inkscape.org/namespaces/inkscape"
   xmlns:sodipodi="http://sodipodi.sourceforge.net/DTD/sodipodi-0.dtd"
   xmlns="http://www.w3.org/2000/svg"
   xmlns:svg="http://www.w3.org/2000/svg">
  <sodipodi:namedview
     id="namedview21"
     pagecolor="#505050"
     bordercolor="#eeeeee"
     borderopacity="1"
     inkscape:pageshadow="0"
     inkscape:pageopacity="0"
     inkscape:pagecheckerboard="0"
     showgrid="false"
     inkscape:zoom="8.3541667"
     inkscape:cx="21.246883"
     inkscape:cy="48.05985"
     inkscape:window-width="1920"
     inkscape:window-height="991"
     inkscape:window-x="-9"
     inkscape:window-y="-9"
     inkscape:window-maximized="1"
     inkscape:current-layer="svg19" />
  <defs
     id="defs5">
    <clipPath
       id="clip0">
      <rect
         x="345"
         y="175"
         width="96"
         height="96"
         id="rect2" />
    </clipPath>
  </defs>
  <g
     clip-path="url(#clip0)"
     transform="translate(-345 -175)"
     id="g17">
    <path
       d="M407.618 228.72C411.926 230.266 416.003 232.028 419.378 234.789 420.995 236.05 421.956 237.973 421.995 240.023L423.751 254.417C423.893 255.505 423.414 256.581 422.512 257.204 420.792 258.316 418.942 259.213 417.004 259.876L417.004 261.985C419.338 261.236 421.565 260.186 423.628 258.863 425.154 257.822 425.968 256.014 425.737 254.182L423.994 239.93C423.93 237.306 422.695 234.847 420.628 233.229 417.001 230.261 412.693 228.412 408.163 226.793L403.241 224.773C402.489 224.467 401.998 223.735 402 222.923L402 219.975C405.774 217.152 407.998 212.716 408.002 208.002L408.002 205.104C408.52 205.317 409.073 205.433 409.633 205.445 410.185 205.445 410.633 204.997 410.633 204.445 410.633 204.337 410.616 204.231 410.582 204.129L409.569 201.089C409.127 199.701 408.773 198.287 408.51 196.855 407.524 192.02 404.344 187.919 399.906 185.761 399.194 185.39 398.334 185.454 397.684 185.925L397.383 185.477C396.973 184.844 396.325 184.403 395.586 184.255 387.845 182.8 380.381 187.714 377.837 195.498 377.401 196.855 377.179 198.272 377.177 199.698L377.168 201.192C377.161 202.591 376.873 203.973 376.32 205.258L374.458 209.606C374.24 210.114 374.475 210.702 374.983 210.919 375.108 210.973 375.242 211 375.377 211 375.455 211 375.533 210.991 375.608 210.973 375.776 210.933 376.727 210.703 378.185 210.289 378.786 214.15 380.871 217.623 383.995 219.969L383.995 222.923C383.997 223.735 383.506 224.467 382.754 224.773L377.799 226.807C373.283 228.423 368.991 230.267 365.388 233.215 363.312 234.835 362.071 237.298 362.005 239.93L360.263 254.189C360.034 256.02 360.849 257.824 362.374 258.864 364.439 260.187 366.668 261.237 369.004 261.987L369.004 259.878C367.063 259.215 365.212 258.317 363.489 257.204 362.588 256.583 362.11 255.51 362.249 254.424L363.996 240.124 364.004 240.024C364.044 237.967 365.012 236.039 366.637 234.777 369.998 232.027 374.07 230.268 378.377 228.723L380.457 227.993C383.162 229.859 387.89 231.003 393 231.003 398.108 231.003 402.836 229.859 405.541 227.993ZM378.159 206.046C378.817 204.517 379.16 202.87 379.169 201.205L379.178 199.711C379.178 198.492 379.367 197.28 379.739 196.119 381.716 190.066 386.999 186 392.884 186 393.667 186.001 394.448 186.075 395.217 186.221 395.428 186.274 395.61 186.408 395.724 186.594L396.616 187.918C396.924 188.376 397.546 188.497 398.004 188.189 398.019 188.179 398.034 188.168 398.049 188.157L398.854 187.548C398.886 187.521 398.93 187.513 398.97 187.528 402.886 189.389 405.695 192.989 406.547 197.24L406.548 197.24C406.827 198.756 407.202 200.253 407.671 201.721L408.081 202.95C405.965 201.752 403.474 198.636 402.141 196.51 401.967 196.233 401.67 196.059 401.344 196.042 401.018 196.023 400.703 196.167 400.504 196.427 395.501 202.858 382.143 207.095 377.104 208.507ZM380.129 209.713C386.01 207.905 396.103 204.181 401.196 198.695 402.532 200.674 404.151 202.447 406.002 203.955L406.002 208.002C406.007 215.178 400.193 220.999 393.017 221.003 386.497 221.007 380.983 216.177 380.129 209.713ZM393.001 229.002C389.453 229.09 385.928 228.394 382.679 226.965L383.513 226.623C385.017 226.01 385.998 224.547 385.995 222.923L385.995 221.245C390.369 223.583 395.621 223.589 400 221.26L400 222.923C399.996 224.547 400.978 226.01 402.481 226.623L403.318 226.967C400.07 228.395 396.548 229.09 393.001 229.002Z"
       id="path7" />
    <path
       d="M415.004 240.54C414.998 238.579 413.405 236.995 411.444 237 411.441 237 411.437 237 411.434 237L374.544 237C372.59 237.002 371.006 238.586 371.004 240.54L371.004 263.19 364.004 263.19 364.004 265.464C364.017 267.413 365.595 268.989 367.544 269L418.468 269C420.417 268.987 421.993 267.409 422.004 265.46L422.004 263.19 415.004 263.19ZM420.004 265.19 420.004 265.456C419.999 266.305 419.313 266.993 418.464 267L367.548 267C366.699 266.995 366.011 266.309 366.004 265.46L366.004 265.19 373.004 265.19 373.004 240.54C373.005 239.69 373.694 239.001 374.544 239L411.464 239C412.314 239.001 413.003 239.69 413.004 240.54L413.004 265.19Z"
       id="path9" />
    <path
       d="M386.416 247.03 380.806 252.64 386.416 258.25 387.826 256.84 383.636 252.64 387.826 248.44 386.416 247.03Z"
       id="path11" />
    <path
       d="M398.146 248.44 402.336 252.64 398.146 256.84 399.556 258.25 405.166 252.64 399.556 247.03 398.146 248.44Z"
       id="path13" />
    <path
       d="M389.706 258.18 391.556 258.95 396.236 247.63 394.396 246.86 389.706 258.18Z"
       id="path15" />
  </g>
</svg>
