<svg width="96" height="96" xmlns="http://www.w3.org/2000/svg" xmlns:xlink="http://www.w3.org/1999/xlink" overflow="hidden"><defs><clipPath id="clip0"><rect x="439" y="68" width="96" height="96"/></clipPath></defs><g clip-path="url(#clip0)" transform="translate(-439 -68)"><path d="M510.4 131.6C506.801 128.147 502.471 125.549 497.73 124 494.301 122.7 490.667 122.022 487 122 483.339 122.082 479.715 122.758 476.27 124 471.602 125.706 467.302 128.285 463.6 131.6 461.928 133.31 460.994 135.608 461 138L461 150 486 150 486 130.17 476.35 134.88C476.224 134.947 476.083 134.981 475.94 134.98 475.737 134.983 475.539 134.916 475.38 134.79 475.091 134.588 474.947 134.237 475.01 133.89L476.24 126.16 476.91 125.9C478.27 125.44 479.55 125.08 480.79 124.79 482.975 128.217 487.525 129.225 490.953 127.04 491.878 126.45 492.659 125.661 493.24 124.73 494.536 125.038 495.812 125.425 497.06 125.89L497.76 126.15 499 133.89C499.064 134.237 498.919 134.588 498.63 134.79 498.471 134.916 498.273 134.983 498.07 134.98 497.927 134.981 497.786 134.947 497.66 134.88L488 130.17 488 150 513 150 513 138C513.006 135.608 512.072 133.31 510.4 131.6Z"/><path d="M499.69 100.39C498.677 98.0721 497.269 95.9473 495.53 94.11 493.782 95.9416 491.806 97.5413 489.65 98.87 486.578 100.632 483.347 102.102 480 103.26 479.477 103.437 478.909 103.156 478.732 102.633 478.595 102.228 478.731 101.781 479.07 101.52 480.013 100.662 480.766 99.6165 481.28 98.45 481.4 98.19 481.5 97.96 481.58 97.73 480.928 98.4109 480.216 99.0302 479.45 99.58 477.815 100.738 476.006 101.626 474.09 102.21 473.33 103.264 472.784 104.456 472.48 105.72 472.328 106.472 472.228 107.234 472.18 108 475.504 116.188 484.836 120.13 493.023 116.806 496.944 115.215 500.075 112.134 501.73 108.24 501.367 105.551 500.682 102.915 499.69 100.39Z"/><path d="M472.72 100.71C472.857 100.537 473.046 100.414 473.26 100.36 475.051 99.8488 476.741 99.0372 478.26 97.96 479.734 96.875 481.001 95.5336 482 94 482.189 93.6804 482.539 93.4918 482.91 93.51 483.279 93.5315 483.605 93.7545 483.76 94.09 483.85 94.28 484.6 96.09 483.07 99.3 482.94 99.58 482.8 99.84 482.67 100.08 484.71 99.2549 486.685 98.2789 488.58 97.16 490.877 95.7626 492.948 94.0226 494.72 92 494.897 91.7869 495.154 91.6566 495.43 91.64 495.71 91.6193 495.986 91.7173 496.19 91.91 498.455 94.1197 500.275 96.7439 501.55 99.64 502.16 101.183 502.661 102.767 503.05 104.38 503.776 103.428 504.195 102.276 504.25 101.08 504.255 95.9963 501.993 91.1751 498.08 87.93L501.42 86.28C501.841 86.0593 502.003 85.5395 501.782 85.1189 501.61 84.7904 501.246 84.6094 500.88 84.67L496.13 85.53 497.3 83.84C497.536 83.4921 497.49 83.0247 497.19 82.73 496.886 82.4373 496.414 82.4118 496.08 82.67L493.56 84.57 491.05 80C490.815 79.587 490.29 79.4425 489.877 79.6771 489.572 79.8505 489.403 80.1921 489.45 80.54L490 84.23C489.042 84.0623 488.072 83.9754 487.1 83.97 477.653 83.981 470 91.6427 470 101.09 470.02 102.155 470.335 103.193 470.91 104.09 471.338 102.878 471.948 101.738 472.72 100.71Z"/></g></svg>