<svg width="96" height="96" xmlns="http://www.w3.org/2000/svg" xmlns:xlink="http://www.w3.org/1999/xlink" overflow="hidden"><defs><clipPath id="clip0"><rect x="443" y="174" width="96" height="96"/></clipPath></defs><g clip-path="url(#clip0)" transform="translate(-443 -174)"><path d="M474.474 213 475.509 213C477.714 221.553 486.434 226.699 494.987 224.494 500.72 223.016 505.168 218.491 506.547 212.733L507.217 212.951C507.317 212.984 507.421 213 507.526 213 507.697 213 507.865 212.956 508.015 212.873 508.258 212.737 508.433 212.505 508.498 212.234 510.125 205.491 507.732 198.414 502.346 194.043L505.479 193.469C506.021 193.363 506.374 192.837 506.268 192.295 506.163 191.763 505.653 191.41 505.118 191.502L500.005 192.439 499.913 192.383 501.3 190.965C501.687 190.57 501.68 189.937 501.285 189.55 500.89 189.163 500.257 189.17 499.87 189.565L498.041 191.435C497.989 191.413 497.941 191.394 497.885 191.373L496.179 186.62C496.013 186.093 495.451 185.801 494.924 185.967 494.398 186.133 494.105 186.695 494.272 187.222 494.28 187.248 494.289 187.274 494.3 187.3L495.481 190.591C485.857 188.113 476.046 193.906 473.567 203.531 472.833 206.383 472.81 209.371 473.5 212.234 473.608 212.684 474.011 213.001 474.474 213ZM491 223C484.305 223.015 478.543 218.273 477.27 211.7L478.681 208.878C479.998 208.537 481.26 208.008 482.427 207.309 483.448 206.677 484.398 205.936 485.259 205.1 485.262 205.096 485.267 205.094 485.271 205.096 485.276 205.099 485.277 205.105 485.275 205.109 485.235 205.219 485.215 205.268 485.205 205.292 485.189 205.333 485.173 205.372 485.157 205.411 484.761 206.485 484.09 207.436 483.211 208.168 482.75 208.473 482.624 209.093 482.929 209.554 483.166 209.912 483.606 210.079 484.021 209.968 484.279 209.899 490.395 208.268 494.229 205.61 496.163 204.275 497.97 202.765 499.629 201.1 501.076 202.494 502.263 204.133 503.138 205.942 503.87 207.705 504.42 209.539 504.778 211.414 503.631 218.122 497.806 223.021 491 223ZM491 192C499.789 191.953 506.952 199.039 507 207.828 507.004 208.588 506.953 209.347 506.849 210.1 506.849 210.105 506.845 210.109 506.84 210.109 506.835 210.109 506.831 210.105 506.831 210.1 506.752 209.918 506.62 209.764 506.452 209.658 506.083 208.121 505.593 206.617 504.985 205.158 503.826 202.793 502.22 200.676 500.256 198.922 500.057 198.745 499.796 198.656 499.53 198.675 499.265 198.692 499.018 198.814 498.843 199.014 497.113 200.868 495.184 202.526 493.09 203.957 491.067 205.246 488.894 206.282 486.618 207.04 486.606 207.04 486.601 207.04 486.607 207.027 486.796 206.666 486.962 206.293 487.107 205.912 487.566 204.523 487.916 203.1 488.152 201.656 488.242 201.111 487.874 200.596 487.329 200.506 486.961 200.445 486.59 200.594 486.366 200.892 484.975 202.715 483.298 204.3 481.4 205.587 480.301 206.258 479.097 206.74 477.838 207.013 477.52 207.064 477.246 207.265 477.102 207.553L475.382 211 475.282 211C473.632 202.311 479.338 193.931 488.027 192.281 489.007 192.095 490.002 192.001 491 192Z"/><path d="M512.756 235.779C507.849 232.114 502.172 229.614 496.156 228.467 495.613 228.368 495.092 228.729 494.993 229.272 494.988 229.304 494.984 229.335 494.981 229.367 494.803 231.43 493.071 233.011 491 233L491 233C488.935 232.971 487.217 231.404 487 229.35 486.944 228.801 486.454 228.4 485.904 228.456 485.88 228.458 485.856 228.462 485.832 228.466 479.816 229.596 474.141 232.099 469.25 235.779 466.557 237.86 464.986 241.077 465 244.481L465 256 467 256 467 244.481C466.983 241.704 468.259 239.077 470.453 237.373 473.54 235.062 476.958 233.23 480.592 231.94L479.02 239.8C478.912 240.342 479.263 240.868 479.805 240.977 480.035 241.022 480.273 240.986 480.479 240.874L490 235.685 490 256 492 256 492 235.685 501.521 240.878C501.668 240.958 501.833 241 502 241 502.552 241 503 240.552 503 240 503 239.933 502.993 239.866 502.98 239.8L501.415 231.973C505.042 233.26 508.457 235.08 511.548 237.373 513.741 239.077 515.017 241.704 515 244.481L515 256 517 256 517 244.481C517.016 241.078 515.447 237.862 512.756 235.779ZM482.772 231.236C483.588 231.002 484.403 230.788 485.214 230.62 485.693 232.227 486.808 233.568 488.3 234.333L481.417 238.087C481.412 238.089 481.406 238.087 481.404 238.082 481.403 238.08 481.403 238.078 481.403 238.076ZM500.581 238.087 493.723 234.346C495.22 233.593 496.33 232.243 496.778 230.629 497.591 230.804 498.412 231.029 499.233 231.264L500.6 238.076C500.603 238.081 500.601 238.088 500.596 238.091 500.591 238.094 500.584 238.092 500.581 238.087Z"/></g></svg>