<svg width="96" height="96" xmlns="http://www.w3.org/2000/svg" xmlns:xlink="http://www.w3.org/1999/xlink" overflow="hidden"><defs><clipPath id="clip0"><rect x="592" y="312" width="96" height="96"/></clipPath></defs><g clip-path="url(#clip0)" transform="translate(-592 -312)"><path d="M683 357.9 669 343.9C667.8 343.1 666.2 343.3 665.2 344.3 664.2 345.3 664 346.9 664.8 348.1L673.7 357 663 357C660.2 357 657.2 357.1 654 357.1 636.6 357.4 610.2 357.8 605.8 347.8 605.1 346.3 603.4 345.6 601.8 346.3 600.3 347 599.6 348.7 600.3 350.3 605.4 361.7 624.6 363.3 643.2 363.3 646.9 363.3 650.6 363.2 654.1 363.2 657.3 363.1 660.3 363.1 663 363.1L673.8 363.1 664.9 372C664 373.2 664.1 374.9 665.1 376 666.1 377.1 667.9 377.2 669.1 376.2L683.1 362.2C683.4 361.9 683.6 361.6 683.7 361.2 683.7 361.1 683.8 361 683.8 360.9 683.8 360.8 683.8 360.8 683.9 360.7 683.9 360.6 683.9 360.5 683.9 360.4 683.9 360.3 683.9 360.2 683.9 360.1 683.9 360 683.9 360 683.9 359.9 683.8 359.1 683.5 358.4 683 357.9Z"/></g></svg>