<svg width="96" height="96" xmlns="http://www.w3.org/2000/svg" xmlns:xlink="http://www.w3.org/1999/xlink" overflow="hidden"><defs><clipPath id="clip0"><rect x="966" y="441" width="96" height="96"/></clipPath></defs><g clip-path="url(#clip0)" transform="translate(-966 -441)"><path d="M1039 523 989 523 989 461 1000 461 1000 467 1028 467 1028 461 1039 461 1039 523ZM1014 453C1015.7 453 1017 454.3 1017 456 1017 457.7 1015.7 459 1014 459 1012.3 459 1011 457.7 1011 456 1011 455.2 1011.3 454.4 1011.9 453.9 1012.4 453.3 1013.2 453 1014 453ZM1041 455 1024 455 1024 453C1024 450.8 1022.2 449 1020 449L1008 449C1005.8 449 1004 450.8 1004 453L1004 455 987 455C984.8 455 983 456.8 983 459L983 525C983 527.2 984.8 529 987 529L1041 529C1043.2 529 1045 527.2 1045 525L1045 459C1045 456.8 1043.2 455 1041 455Z"/></g></svg>