<svg width="96" height="96" xmlns="http://www.w3.org/2000/svg" xmlns:xlink="http://www.w3.org/1999/xlink" overflow="hidden"><defs><clipPath id="clip0"><rect x="1075" y="435" width="96" height="96"/></clipPath></defs><g clip-path="url(#clip0)" transform="translate(-1075 -435)"><path d="M1123 455C1124.93 455 1126.5 453.433 1126.5 451.5 1126.5 449.567 1124.93 448 1123 448L1122.9 448C1121 448.034 1119.48 449.597 1119.5 451.5 1119.5 453.432 1121.07 454.997 1123 455ZM1122.93 450 1123 450C1123.83 450 1124.5 450.672 1124.5 451.5 1124.5 452.328 1123.83 453 1123 453 1122.17 453 1121.5 452.328 1121.5 451.5 1121.5 451.495 1121.5 451.491 1121.5 451.486 1121.49 450.68 1122.13 450.016 1122.93 450Z"/><path d="M1153 453.979C1153 451.77 1151.21 449.979 1149 449.979L1134 449.979 1134 447.979C1134 445.219 1131.76 442.983 1129 442.979L1117 442.979C1114.24 442.982 1112 445.219 1112 447.979L1112 449.979 1097 449.979C1094.79 449.982 1093 451.771 1093 453.979L1093 519C1093 521.209 1094.79 523 1097 523L1149 523C1151.21 523 1153 521.209 1153 519ZM1110 451.979 1114 451.979 1114 447.979C1114 446.322 1115.34 444.979 1117 444.979L1129 444.979C1130.66 444.979 1132 446.322 1132 447.979L1132 451.979 1136 451.979 1136 460 1110 460ZM1149 521 1097 521C1095.9 521 1095 520.105 1095 519L1095 453.979C1095 452.874 1095.9 451.979 1097 451.979L1108 451.979 1108 462 1138 462 1138 451.979 1149 451.979C1150.1 451.979 1151 452.874 1151 453.979L1151 519C1151 520.105 1150.1 521 1149 521Z"/></g></svg>