<svg width="96" height="96" xmlns="http://www.w3.org/2000/svg" xmlns:xlink="http://www.w3.org/1999/xlink" overflow="hidden"><defs><clipPath id="clip0"><rect x="318" y="329" width="96" height="96"/></clipPath></defs><g clip-path="url(#clip0)" transform="translate(-318 -329)"><path d="M366 339C345 339 328 356 328 377 328 398 345 415 366 415 387 415 404 398 404 377 404 356 387 339 366 339ZM364 349C366.8 349 369 351.2 369 354 369 356.8 366.8 359 364 359 361.2 359 359 356.8 359 354 359 351.2 361.2 349 364 349ZM376 405 356 405 356 399 363 399 363 369 357 369 357 363 369 363 369 369 369 399 376 399 376 405Z"/></g></svg>